<svg xmlns="http://www.w3.org/2000/svg" width="159.581" height="248.399" viewBox="0 0 159.581 248.399">
  <g id="finallogo" transform="translate(-845.419 -436.187)">
    <g id="whitecolorlogo" transform="translate(-659 -54)">
      <g id="Group_4" data-name="Group 4" transform="translate(147 189)">
        <g id="Group_1" data-name="Group 1">
          <path id="Path_1" data-name="Path 1" d="M1018.6,415.838s21.472-14.571,21.472-26.841-10.736-15.337-21.472-12.27a14.061,14.061,0,0,0-8.735,6.556c-3.77,5.7-6.116,14.225-6.6,15.684-.767,2.3-7.669,12.27-15.337,6.9s-64.417-53.681-64.417-53.681-6.135,15.337,0,24.54,42.945,39.111,42.945,39.111L923.509,389s-5.368,23.006,0,26.841,42.945,26.074,42.945,26.074l-42.945-18.4s-9.2,11.5,0,18.4c6.064,4.548,26.449,17.422,43.6,31.119,8.537,6.818,16.372,13.985,20.817,20.262,13.037,18.4-10.736-6.135-10.736-6.135s-1.306,11.154-4.6,31.288c-1.409,8.609-5.422,25.522-6.135,33.13-2.3,24.54,3.834,48.313,6.135,44.479s4.6-32.209,15.338-64.417S1018.6,459.55,1018.6,459.55s38.811,35.047,29.609,27.607S1018.6,415.838,1018.6,415.838Z" transform="translate(438 -51)" fill="#e78506"/>
        </g>
        <path id="Path_3" data-name="Path 3" d="M1452.46,366.758c0,3.834-17.515,55.509-17.515,55.509s-29.84,111.766-29.265,110.9c1.534-2.3,0,12.27,0,12.27s31.442-102.761,46.779-136.5S1452.46,360.623,1452.46,366.758Z" transform="translate(3 4)" fill="#fcfcfc" stroke="#f3e7db" stroke-width="1"/>
      </g>
      <g id="BAG" transform="translate(-24 -19)">
        <g id="Group_6" data-name="Group 6" transform="translate(11 4)">
          <rect id="Rectangle_2" data-name="Rectangle 2" width="62" height="44" rx="5" transform="translate(1615 638)" fill="#80cc28"/>
          <g id="Group_5" data-name="Group 5" transform="translate(9 -117)">
            <line id="Line_1" data-name="Line 1" x1="34" transform="translate(1620.5 777.5)" fill="none" stroke="#fff" stroke-width="10"/>
            <line id="Line_2" data-name="Line 2" y2="32" transform="translate(1637.5 761.5)" fill="none" stroke="#fff" stroke-width="10"/>
          </g>
        </g>
        <path id="Subtraction_1" data-name="Subtraction 1" d="M42.927,16.143v0C39.385,10.31,31.564,6.542,23,6.542S6.615,10.31,3.073,16.141A11.02,11.02,0,0,1,3,14.869,11.59,11.59,0,0,1,4.571,9.081,15.46,15.46,0,0,1,8.858,4.355a21.331,21.331,0,0,1,6.357-3.187,26.517,26.517,0,0,1,15.57,0,21.33,21.33,0,0,1,6.357,3.187,15.459,15.459,0,0,1,4.286,4.726A11.591,11.591,0,0,1,43,14.869a11.285,11.285,0,0,1-.072,1.273Z" transform="translate(1634 631)" fill="#80cc28"/>
      </g>
    </g>
  </g>
</svg>
